<svg width="51" height="51" viewBox="0 0 51 51" fill="none" xmlns="http://www.w3.org/2000/svg">
<circle cx="25.209" cy="25.7001" r="23.5" fill="white" stroke="#F2994A" stroke-width="3"/>
<path d="M31.459 24.7001C32.0113 24.7001 32.459 25.1478 32.459 25.7001C32.459 26.2524 32.0113 26.7001 31.459 26.7001V24.7001ZM13.959 26.7001C13.4067 26.7001 12.959 26.2524 12.959 25.7001C12.959 25.1478 13.4067 24.7001 13.959 24.7001V26.7001ZM31.459 26.7001H13.959V24.7001H31.459V26.7001Z" fill="#F2994A"/>
<path d="M37.4242 25.4967L30.224 20.3537C29.6945 19.9754 28.959 20.3539 28.959 21.0046V30.3955C28.959 31.0462 29.6945 31.4247 30.224 31.0465L37.4242 25.9035C37.5638 25.8038 37.5638 25.5964 37.4242 25.4967Z" fill="#F2994A"/>
</svg>
