<svg width="51" height="51" viewBox="0 0 51 51" fill="none" xmlns="http://www.w3.org/2000/svg">
<circle cx="25.7327" cy="25.7001" r="23.5" fill="white" stroke="#F2994A" stroke-width="3"/>
<path d="M19.4827 24.7001C18.9304 24.7001 18.4827 25.1478 18.4827 25.7001C18.4827 26.2524 18.9304 26.7001 19.4827 26.7001V24.7001ZM36.9827 26.7001C37.535 26.7001 37.9827 26.2524 37.9827 25.7001C37.9827 25.1478 37.535 24.7001 36.9827 24.7001V26.7001ZM19.4827 26.7001H36.9827V24.7001H19.4827V26.7001Z" fill="#F2994A"/>
<path d="M13.5175 25.4966L20.7177 20.3536C21.2472 19.9754 21.9827 20.3539 21.9827 21.0046V30.3955C21.9827 31.0462 21.2472 31.4247 20.7177 31.0465L13.5175 25.9035C13.3779 25.8038 13.3779 25.5963 13.5175 25.4966Z" fill="#F2994A"/>
</svg>
